<!-- OpenLifeOS Icon Only -->
<svg width="80" height="80" viewBox="0 0 80 80" fill="none" xmlns="http://www.w3.org/2000/svg">
  <!-- Logo Symbol: Neural Network Brain -->
  <g id="icon">
    <!-- Outer Circle (Brain) -->
    <circle cx="40" cy="40" r="36" stroke="url(#gradient-icon)" stroke-width="2.5" fill="none"/>
    
    <!-- Neural Network Nodes (Hexagonal Symmetry) -->
    <circle cx="40" cy="20" r="5" fill="url(#gradient-icon)"/>
    <circle cx="24" cy="30" r="5" fill="url(#gradient-icon)"/>
    <circle cx="56" cy="30" r="5" fill="url(#gradient-icon)"/>
    <circle cx="24" cy="50" r="5" fill="url(#gradient-icon)"/>
    <circle cx="56" cy="50" r="5" fill="url(#gradient-icon)"/>
    <circle cx="40" cy="60" r="5" fill="url(#gradient-icon)"/>
    
    <!-- Neural Connections -->
    <path d="M40 20 L24 30 M40 20 L56 30 M24 30 L24 50 M56 30 L56 50 M24 50 L40 60 M56 50 L40 60" 
          stroke="url(#gradient-icon)" stroke-width="2" opacity="0.6"/>
    
    <!-- Additional Cross Connections -->
    <path d="M24 30 L56 50 M56 30 L24 50" 
          stroke="url(#gradient-icon)" stroke-width="1" opacity="0.3"/>
    
    <!-- Central Core (AI) -->
    <circle cx="40" cy="40" r="10" fill="url(#gradient-core)"/>
    <circle cx="40" cy="40" r="6" fill="#ffffff"/>
    <circle cx="40" cy="40" r="3" fill="url(#gradient-icon)"/>
    
    <!-- Pulse Animation Rings -->
    <circle cx="40" cy="40" r="22" stroke="url(#gradient-icon)" stroke-width="1.5" fill="none" opacity="0.3">
      <animate attributeName="r" values="22;32;22" dur="3s" repeatCount="indefinite"/>
      <animate attributeName="opacity" values="0.3;0.1;0.3" dur="3s" repeatCount="indefinite"/>
    </circle>
    
    <circle cx="40" cy="40" r="28" stroke="url(#gradient-icon)" stroke-width="1" fill="none" opacity="0.2">
      <animate attributeName="r" values="28;36;28" dur="4s" repeatCount="indefinite"/>
      <animate attributeName="opacity" values="0.2;0.05;0.2" dur="4s" repeatCount="indefinite"/>
    </circle>
  </g>
  
  <!-- Gradients -->
  <defs>
    <linearGradient id="gradient-icon" x1="0%" y1="0%" x2="100%" y2="100%">
      <stop offset="0%" style="stop-color:#667eea;stop-opacity:1" />
      <stop offset="50%" style="stop-color:#764ba2;stop-opacity:1" />
      <stop offset="100%" style="stop-color:#f093fb;stop-opacity:1" />
    </linearGradient>
    
    <radialGradient id="gradient-core">
      <stop offset="0%" style="stop-color:#f5576c;stop-opacity:1" />
      <stop offset="100%" style="stop-color:#f093fb;stop-opacity:1" />
    </radialGradient>
  </defs>
</svg>